<svg width="112" height="664" viewBox="0 0 112 664" fill="none" xmlns="http://www.w3.org/2000/svg">
<path d="M76.1909 644.5C76.1909 646.995 75.6784 649.466 74.6827 651.771C73.687 654.076 72.2276 656.171 70.3877 657.935C68.5479 659.699 66.3637 661.099 63.9599 662.054C61.556 663.009 58.9796 663.5 56.3777 663.5C53.7758 663.5 51.1993 663.009 48.7955 662.054C46.3916 661.099 44.2074 659.699 42.3676 657.935C40.5278 656.171 39.0684 654.076 38.0726 651.771C37.0769 649.466 36.5645 646.995 36.5645 644.5L56.3777 644.5H76.1909Z" fill="#0033FF"/>
<path d="M56.0645 548V0" stroke="#403E3E" stroke-width="2"/>
<path d="M31.5645 564C40.7073 547.158 55.4057 547.451 56.4993 547.497C56.5354 547.498 56.5641 547.499 56.5966 547.501L56.6298 547.502C57.8017 547.555 74.3146 548.572 81.0636 564C83.8712 570.418 84.1051 576.424 83.9124 579.903C83.8109 581.736 84.7137 583.57 86.2754 584.534C91.4594 587.733 102.689 596.005 107.5 610C112.083 623.332 112.171 635.366 111.863 641.048C111.755 643.035 110.087 644.5 108.097 644.5H3.86703C1.73633 644.5 -0.00716615 642.838 0.00074261 640.707C0.0248584 634.21 0.658185 620.625 5.064 610C11.3872 594.751 21.3065 587.248 25.9731 584.405C27.473 583.491 28.4364 581.809 28.4031 580.053C28.3299 576.201 28.6763 569.32 31.5645 564Z" fill="#080808" fill-opacity="0.9"/>
</svg>
