<?xml version="1.0" encoding="utf-8"?>
<!-- Generator: Adobe Illustrator 22.1.0, SVG Export Plug-In . SVG Version: 6.00 Build 0)  -->
<svg version="1.1" id="Livello_1" xmlns="http://www.w3.org/2000/svg" xmlns:xlink="http://www.w3.org/1999/xlink" x="0px" y="0px"
	 viewBox="0 0 300 53.3" style="enable-background:new 0 0 300 53.3;" xml:space="preserve">
<style type="text/css">
	.st0{fill:#FF9933;}
	.st1{display:none;fill:#FF9933;}
	.st2{fill:#F7A600;}
	.st3{fill:#FFFFFF;}
	.st4{fill:url(#);}
	.st5{stroke:#000000;stroke-width:5;stroke-miterlimit:10;}
	.st6{display:none;}
	.st7{display:inline;}
	.st8{fill:#30FFC4;}
	.st9{fill:none;stroke:#000000;stroke-width:0.25;stroke-miterlimit:10;}
	.st10{fill:none;stroke:#000000;stroke-width:0.2723;stroke-miterlimit:10;}
	.st11{fill:none;}
	.st12{fill:none;stroke:#000000;stroke-width:0.3385;stroke-miterlimit:10;}
	.st13{stroke:#000000;stroke-width:2.6113;stroke-miterlimit:10;}
</style>
<g>
	<path d="M29.5,17.9c-1.2-0.7-2.8-1.2-4.9-1.6c-1.9-0.3-4.4-0.5-7.3-0.5c-3,0-5.5,0.1-7.6,0.4c-2.2,0.3-3.9,0.7-5.3,1.4
		c-1.5,0.7-2.6,1.6-3.3,2.8C0.4,21.6,0,23,0,24.6c0,1.1,0.1,2.1,0.3,3.1c0.2,1,0.6,1.9,1.2,2.7c0.6,0.8,1.3,1.4,2.3,1.8
		c0.9,0.4,1.9,0.7,3.1,0.9c1.2,0.2,2.6,0.3,4.2,0.4c1.6,0.1,3.4,0.1,5.5,0.1c1.7,0,3.1,0,4.3,0.1c1.1,0.1,2.1,0.1,2.9,0.3
		c0.9,0.1,1.4,0.3,1.6,0.4c0.3,0.1,0.4,0.3,0.5,0.4c0.2,0.2,0.2,0.5,0.3,0.7c0.1,0.3,0.1,0.7,0.1,1.1c0,0.5,0,0.9-0.1,1.3
		c0,0.2-0.1,0.5-0.3,0.7c-0.1,0.2-0.4,0.4-0.7,0.5c-0.4,0.2-1,0.4-1.7,0.5c-0.8,0.2-1.8,0.3-3,0.4c-1.2,0.1-2.8,0.1-4.6,0.1
		c-2,0-3.6-0.1-4.9-0.2c-1.2-0.1-2.1-0.3-2.7-0.6c-0.5-0.2-0.8-0.5-1-0.8C7.1,38.1,7,37.5,7,36.9v-1.3H0v1.3c0,1.6,0.3,3,0.9,4.1
		c0.6,1.2,1.6,2.2,3,2.9c1.3,0.7,2.9,1.1,4.9,1.4c1.9,0.3,4.3,0.4,7.1,0.4c2.2,0,4.2-0.1,5.8-0.2c1.7-0.1,3.2-0.3,4.4-0.6
		c1.3-0.3,2.4-0.7,3.3-1.2c0.9-0.5,1.7-1.2,2.3-1.9c0.6-0.7,1-1.6,1.2-2.6c0.2-0.9,0.3-1.9,0.3-2.9c0-1.1-0.1-2.1-0.3-2.9
		c-0.2-0.9-0.6-1.8-1.2-2.5c-0.5-0.7-1.2-1.3-2.1-1.8c-0.9-0.6-2-1-3.3-1.2c-1.2-0.2-2.6-0.4-4.2-0.5c-1.6-0.1-3.4-0.1-5.5-0.1
		c-1.7,0-3.1,0-4.3,0c-1.2,0-2.1-0.1-2.9-0.1C8.5,27,8,26.9,7.7,26.8c-0.2-0.1-0.4-0.2-0.5-0.3c-0.1-0.1-0.2-0.3-0.2-0.6
		C7,25.5,7,25,7,24.6c0-0.6,0.1-1,0.3-1.3c0.2-0.3,0.7-0.5,1.3-0.7c0.8-0.2,1.9-0.4,3.3-0.4c1.5-0.1,3.3-0.1,5.4-0.1
		c2,0,3.6,0.1,4.9,0.2c1.2,0.1,2.1,0.3,2.8,0.5c0.3,0.1,0.8,0.4,1,0.7c0.2,0.3,0.3,0.8,0.3,1.3v1.3h7v-1.3c0-1.5-0.3-2.8-0.8-4
		C31.8,19.7,30.9,18.7,29.5,17.9z"/>
	<rect x="69.8" y="7.9" width="7" height="7"/>
	<path d="M69.8,16.7H59.1L43.3,26.9V7.9h-7v37.5h7V33.1l16.5,12.3h10h0.9h6V16.7h-6.4H69.8z M49.8,30.2L69.8,17v27.8L49.8,30.2z"/>
	<rect x="82.9" y="7.9" width="7" height="37.5"/>
	<rect x="96" y="7.9" width="7" height="37.5"/>
	<g>
		<path d="M200.9,22.4c-0.4-1.1-0.9-2-1.6-2.8c-0.7-0.8-1.6-1.5-2.8-2.1c-1.1-0.5-2.4-0.9-3.9-1.2c-1.5-0.3-3.2-0.4-5.2-0.4
			c-0.7,0-1.5,0-2.3,0.1c-0.8,0-1.7,0.1-2.6,0.3c-0.9,0.1-1.8,0.3-2.7,0.6c-0.9,0.3-1.8,0.6-2.7,1c-0.5,0.3-1,0.6-1.5,0.9v-2.1h-7
			v28.8h7V28.1c0-0.9,0.1-1.8,0.4-2.5c0.2-0.7,0.7-1.2,1.3-1.7c0.7-0.5,1.8-1,3.1-1.3c1.4-0.3,3.3-0.5,5.5-0.5c2.1,0,3.8,0.1,5,0.4
			c1.1,0.3,1.9,0.6,2.5,1.2c0.5,0.5,0.9,1.2,1.1,2c0.2,1,0.3,2.3,0.3,3.8v15.8h6.9l0-15.8c0-1.4-0.1-2.6-0.2-3.8
			C201.5,24.5,201.2,23.4,200.9,22.4z"/>
		<rect x="206.5" y="7.9" width="7" height="37.5"/>
		<rect x="219.6" y="7.9" width="7" height="7"/>
		<rect x="219.6" y="16.7" width="7" height="28.8"/>
		<path d="M263.5,22.4c-0.4-1.1-0.9-2-1.6-2.8c-0.7-0.8-1.6-1.5-2.8-2.1c-1.1-0.5-2.4-0.9-3.9-1.2c-1.5-0.3-3.2-0.4-5.2-0.4
			c-0.7,0-1.5,0-2.3,0.1c-0.8,0-1.7,0.1-2.6,0.3c-0.9,0.1-1.8,0.3-2.7,0.6c-0.9,0.3-1.8,0.6-2.7,1c-0.5,0.3-1,0.6-1.5,0.9v-2.1h-7
			v28.8h7V28.1c0-0.9,0.1-1.8,0.4-2.5c0.2-0.7,0.7-1.2,1.3-1.7c0.7-0.5,1.8-1,3.1-1.3c1.4-0.3,3.3-0.5,5.5-0.5c2.1,0,3.8,0.1,5,0.4
			c1.1,0.3,1.9,0.6,2.5,1.2c0.5,0.5,0.9,1.2,1.1,2c0.2,1,0.3,2.3,0.3,3.8v15.8h6.9l0-15.8c0-1.4-0.1-2.6-0.2-3.8
			C264.1,24.5,263.8,23.4,263.5,22.4z"/>
		<path d="M300,30.8v-0.2c0-1.4-0.1-2.7-0.2-4c-0.2-1.3-0.5-2.5-0.9-3.5c-0.4-1-1-2-1.8-2.9c-0.8-0.9-1.8-1.8-3-2.4
			c-1.2-0.6-2.6-1.1-4.3-1.4c-1.6-0.3-3.5-0.5-5.7-0.5c-3,0-5.6,0.2-7.7,0.7c-2.2,0.5-4.1,1.4-5.5,2.6c-1.5,1.3-2.5,3-3.2,5.1
			c-0.6,2-0.9,4.5-0.9,7.5c0,2.6,0.3,4.9,0.9,6.7c0.7,1.9,1.7,3.4,3.2,4.6c1.4,1.1,3.3,1.9,5.5,2.3c2.1,0.4,4.7,0.6,7.7,0.6
			c2.8,0,5.2-0.1,7.1-0.4c2-0.3,3.6-0.8,4.9-1.5c1.4-0.7,2.4-1.7,3-3c0.6-1.2,0.9-2.6,0.9-4.2v-1.3h-7v1.3c0,0.6-0.1,1.1-0.3,1.5
			c-0.2,0.3-0.5,0.5-1,0.7c-0.7,0.3-1.6,0.4-2.8,0.5c-1.3,0.1-2.9,0.2-4.9,0.2c-2.1,0-3.9-0.1-5.4-0.2c-1.3-0.1-2.3-0.4-3-0.9
			c-0.6-0.4-1.1-1.1-1.4-2c-0.3-0.8-0.4-1.9-0.5-3.1l26.2,0V30.8z M284.2,22.1c1.7,0,3.2,0.1,4.4,0.3c1.1,0.2,1.9,0.6,2.6,1.1
			c0.6,0.5,1.1,1.1,1.4,1.9c0.2,0.6,0.4,1.4,0.4,2.4h-19.2c0-0.7,0.1-1.3,0.2-1.9c0.2-0.9,0.4-1.4,0.6-1.7c0.3-0.4,0.6-0.7,1.1-1
			c0.5-0.3,1.1-0.5,1.8-0.7c0.8-0.2,1.7-0.3,2.8-0.4C281.4,22.2,282.7,22.1,284.2,22.1z"/>
	</g>
	<g>
		<path class="st0" d="M109.1,43.8V9.6c0-5.3,4.3-9.6,9.6-9.6h34.2c5.3,0,9.6,4.3,9.6,9.6v34.2c0,5.3-4.3,9.6-9.6,9.6h-34.2
			C113.4,53.3,109.1,49.1,109.1,43.8z"/>
	</g>
	<g>
		<path d="M128.3,35.3c-1.1-0.1-2.1-0.3-2.9-0.5c-0.7-0.2-1.2-0.5-1.6-0.9c-0.4-0.3-0.7-0.8-0.9-1.4c-0.3-0.7-0.4-1.5-0.5-2.4
			c-0.1-1-0.2-2.2-0.2-3.6c0-1.5,0.1-2.7,0.2-3.7c0.2-0.9,0.4-1.7,0.7-2.4c0.3-0.5,0.6-1,1.1-1.3c0.5-0.3,1.1-0.6,1.8-0.8
			c0.8-0.2,1.7-0.3,2.7-0.4c1.1-0.1,2.4-0.1,3.8-0.1v-6.2c-3,0-5.6,0.2-7.7,0.6c-2.2,0.5-4.1,1.3-5.5,2.4c-1.5,1.2-2.5,2.8-3.2,4.8
			c-0.6,1.9-0.9,4.2-0.9,7c0,2.8,0.3,5.2,0.9,7.1c0.7,2,1.7,3.7,3.2,4.9c1.4,1.2,3.3,2,5.5,2.5c2.1,0.5,4.7,0.7,7.7,0.7v-6.2
			C130.9,35.5,129.5,35.4,128.3,35.3z"/>
		<path d="M155.4,19.5c-0.7-2-1.7-3.6-3.2-4.8c-1.4-1.1-3.3-2-5.5-2.4c-2.1-0.4-4.7-0.6-7.7-0.6v6.2c1.4,0,2.7,0,3.8,0.1
			c1.1,0.1,2,0.2,2.8,0.4c0.7,0.2,1.3,0.4,1.8,0.8c0.4,0.3,0.8,0.7,1.1,1.3c0.3,0.6,0.5,1.4,0.7,2.4c0.2,1,0.2,2.3,0.2,3.7
			c0,1.5-0.1,2.8-0.2,3.8c-0.2,1-0.4,1.8-0.7,2.5c-0.3,0.6-0.6,1-1.1,1.3c-0.5,0.3-1.1,0.6-1.8,0.8c-0.8,0.2-1.7,0.4-2.7,0.4
			c-1.1,0.1-2.4,0.1-3.8,0.1v6.2c3,0,5.6-0.2,7.7-0.7c2.2-0.5,4.1-1.3,5.5-2.5c1.5-1.2,2.5-2.8,3.2-4.9c0.6-1.9,0.9-4.3,0.9-7.1
			C156.3,23.7,156,21.3,155.4,19.5z"/>
	</g>
	<rect x="128" y="23.2" width="15.6" height="7"/>
</g>
</svg>
